<?xml version="1.0" encoding="UTF-8"?>
<!DOCTYPE svg PUBLIC "-//W3C//DTD SVG 1.1//EN" "http://www.w3.org/Graphics/SVG/1.1/DTD/svg11.dtd">
<svg xmlns="http://www.w3.org/2000/svg" version="1.1" width="302px" height="307px" style="shape-rendering:geometricPrecision; text-rendering:geometricPrecision; image-rendering:optimizeQuality; fill-rule:evenodd; clip-rule:evenodd" xmlns:xlink="http://www.w3.org/1999/xlink">
<g><path style="opacity:0.391" fill="#616161" d="M 87.5,2.5 C 77.8333,3.83333 68.1667,3.83333 58.5,2.5C 68.1667,1.16667 77.8333,1.16667 87.5,2.5 Z"/></g>
<g><path style="opacity:0.995" fill="#020201" d="M 54.5,2.5 C 55.8333,2.5 57.1667,2.5 58.5,2.5C 68.1667,3.83333 77.8333,3.83333 87.5,2.5C 107.82,3.50867 128.153,4.17534 148.5,4.5C 148.791,5.64911 149.624,6.31577 151,6.5C 152.07,6.47196 152.903,6.13863 153.5,5.5C 161.111,4.56626 168.778,4.23293 176.5,4.5C 177.918,6.30794 179.918,6.97461 182.5,6.5C 185.64,7.64084 188.973,7.8075 192.5,7C 194.119,6.76445 195.119,5.93112 195.5,4.5C 202.868,4.31686 210.201,4.6502 217.5,5.5C 217.33,6.82207 217.663,7.98873 218.5,9C 219.816,9.52811 220.483,9.02811 220.5,7.5C 227.746,8.46399 235.08,8.79733 242.5,8.5C 242.5,9.83333 242.5,11.1667 242.5,12.5C 239.392,12.3746 237.392,13.7079 236.5,16.5C 233.15,16.335 229.817,16.5017 226.5,17C 232.825,17.4995 239.158,17.6662 245.5,17.5C 245.5,18.5 245.5,19.5 245.5,20.5C 247.415,20.7845 249.081,20.4511 250.5,19.5C 252.903,19.448 255.236,19.7814 257.5,20.5C 259.72,24.8768 263.387,27.5435 268.5,28.5C 270.833,30.1667 272.833,32.1667 274.5,34.5C 276.811,37.6632 278.978,40.9965 281,44.5C 281.662,46.8127 282.162,49.146 282.5,51.5C 283.5,51.5 284.5,51.5 285.5,51.5C 285.5,51.8333 285.5,52.1667 285.5,52.5C 284.514,56.97 284.181,61.6367 284.5,66.5C 287.082,66.9746 289.082,66.3079 290.5,64.5C 290.843,62.5168 290.176,61.1834 288.5,60.5C 288.5,57.1667 288.5,53.8333 288.5,50.5C 289.649,50.2089 290.316,49.3756 290.5,48C 290.316,46.6244 289.649,45.7911 288.5,45.5C 288.5,44.5 288.5,43.5 288.5,42.5C 289.833,42.5 291.167,42.5 292.5,42.5C 292.5,43.1667 292.5,43.8333 292.5,44.5C 294.5,47.5126 295.5,50.846 295.5,54.5C 293.541,60.7496 292.874,67.4163 293.5,74.5C 291.735,75.4614 289.735,75.7947 287.5,75.5C 286.902,80.813 286.569,86.1463 286.5,91.5C 286.557,92.609 286.89,93.609 287.5,94.5C 287.264,97.6085 287.597,100.609 288.5,103.5C 287.833,103.5 287.5,103.833 287.5,104.5C 286.183,110.346 286.183,116.346 287.5,122.5C 289.217,121.332 289.884,119.665 289.5,117.5C 291.5,117.833 293.5,118.167 295.5,118.5C 294.992,127.894 294.992,137.227 295.5,146.5C 294.167,146.5 292.833,146.5 291.5,146.5C 290.432,145.566 289.099,145.232 287.5,145.5C 286.891,148.878 288.224,150.878 291.5,151.5C 291.5,152.833 291.5,154.167 291.5,155.5C 290.167,155.5 288.833,155.5 287.5,155.5C 287.5,156.833 287.5,158.167 287.5,159.5C 289.199,159.473 290.533,158.806 291.5,157.5C 292.167,157.5 292.833,157.5 293.5,157.5C 293.167,160.167 292.833,162.833 292.5,165.5C 292.5,166.5 292.5,167.5 292.5,168.5C 292.5,169.167 292.5,169.833 292.5,170.5C 290.744,171.552 290.077,173.219 290.5,175.5C 291.833,175.5 293.167,175.5 294.5,175.5C 294.5,178.833 294.5,182.167 294.5,185.5C 293.508,185.328 292.842,185.662 292.5,186.5C 291.659,191.01 290.992,195.676 290.5,200.5C 291.5,200.5 292.5,200.5 293.5,200.5C 293.238,199.022 293.571,197.689 294.5,196.5C 294.833,197.167 295.167,197.833 295.5,198.5C 294.5,200.5 293.5,202.5 292.5,204.5C 292.516,206.516 293.516,207.516 295.5,207.5C 295.498,213.523 295.165,219.523 294.5,225.5C 291.68,226.465 290.347,228.465 290.5,231.5C 287.074,234.6 285.74,238.6 286.5,243.5C 283.839,250.792 281.173,258.125 278.5,265.5C 277.833,265.5 277.5,265.833 277.5,266.5C 276.833,266.5 276.5,266.833 276.5,267.5C 272.059,271.596 267.059,274.93 261.5,277.5C 260.614,278.325 260.281,279.325 260.5,280.5C 258.958,281.301 257.292,281.634 255.5,281.5C 252.834,281.933 250.168,282.433 247.5,283C 246.944,283.383 246.611,283.883 246.5,284.5C 244.5,284.5 242.5,284.5 240.5,284.5C 240.167,284.5 239.833,284.5 239.5,284.5C 231.001,283.633 222.334,283.633 213.5,284.5C 211.5,284.5 209.5,284.5 207.5,284.5C 205.535,285.129 203.535,285.796 201.5,286.5C 200.075,286.377 198.742,286.043 197.5,285.5C 194.28,285.635 190.947,284.968 187.5,283.5C 186.274,283.52 185.274,283.853 184.5,284.5C 182.785,287.303 181.452,290.303 180.5,293.5C 181.833,293.5 183.167,293.5 184.5,293.5C 184.5,294.5 184.5,295.5 184.5,296.5C 182.833,296.5 181.167,296.5 179.5,296.5C 178.848,295.275 177.681,294.608 176,294.5C 174.319,294.608 173.152,295.275 172.5,296.5C 170.167,296.5 167.833,296.5 165.5,296.5C 166.806,295.533 167.473,294.199 167.5,292.5C 165.03,292.654 163.03,293.654 161.5,295.5C 160.833,295.5 160.167,295.5 159.5,295.5C 158.952,293.606 157.952,291.94 156.5,290.5C 155.177,292.854 155.843,294.521 158.5,295.5C 157.359,297.229 155.693,298.229 153.5,298.5C 151.97,298.36 150.97,297.693 150.5,296.5C 151.692,295.434 151.359,294.601 149.5,294C 152.23,292.768 152.063,291.935 149,291.5C 146.244,291.424 145.077,292.757 145.5,295.5C 143.958,296.301 142.292,296.634 140.5,296.5C 140.167,296.5 139.833,296.5 139.5,296.5C 137.393,295.532 135.059,295.198 132.5,295.5C 132.5,294.167 132.5,292.833 132.5,291.5C 134.099,290.201 134.599,288.535 134,286.5C 132.057,285.193 130.223,285.193 128.5,286.5C 115.829,286.333 103.162,286.5 90.5,287C 89.6634,288.011 89.33,289.178 89.5,290.5C 87.8333,290.5 86.1667,290.5 84.5,290.5C 82.1861,291.179 81.8528,292.512 83.5,294.5C 78.9903,296.053 74.3236,296.886 69.5,297C 68.244,297.417 67.5774,298.25 67.5,299.5C 65.1667,299.5 62.8333,299.5 60.5,299.5C 58.6283,297.938 56.2949,296.938 53.5,296.5C 54.5896,295.391 54.5896,294.391 53.5,293.5C 52.2008,294.694 50.8675,295.694 49.5,296.5C 49.1667,296.5 48.8333,296.5 48.5,296.5C 48.1412,294.629 47.1412,293.129 45.5,292C 42.854,291.503 40.1873,291.336 37.5,291.5C 37.5,290.833 37.5,290.167 37.5,289.5C 36.2032,285.842 33.5365,284.176 29.5,284.5C 27.0274,284.912 25.6941,283.912 25.5,281.5C 24.7841,278.402 23.2841,275.736 21,273.5C 20.5045,271.527 20.3379,269.527 20.5,267.5C 19.5,267.5 18.5,267.5 17.5,267.5C 17.5,266.833 17.5,266.167 17.5,265.5C 18.8333,265.5 20.1667,265.5 21.5,265.5C 21.5,264.5 21.5,263.5 21.5,262.5C 18.8333,262.5 16.1667,262.5 13.5,262.5C 13.5,260.5 13.5,258.5 13.5,256.5C 16.5694,255.196 17.5694,253.196 16.5,250.5C 14.851,248.825 13.5177,246.825 12.5,244.5C 11.5832,243.873 10.5832,243.539 9.5,243.5C 9.71481,241.821 9.04814,240.821 7.5,240.5C 7.5,239.167 7.5,237.833 7.5,236.5C 9.8447,234.643 10.178,232.31 8.5,229.5C 8.5,228.833 8.5,228.167 8.5,227.5C 10.7812,227.923 12.4479,227.256 13.5,225.5C 14.791,225.737 15.791,225.404 16.5,224.5C 18.0481,224.179 18.7148,223.179 18.5,221.5C 16.901,221.232 15.5676,221.566 14.5,222.5C 13.8333,222.5 13.1667,222.5 12.5,222.5C 11.5942,219.564 10.9275,216.564 10.5,213.5C 13.1667,212.833 13.1667,212.167 10.5,211.5C 10.4456,209.368 9.44563,208.035 7.5,207.5C 7.5,197.833 7.5,188.167 7.5,178.5C 8.12555,171.416 7.45888,164.75 5.5,158.5C 5.5,156.833 5.5,155.167 5.5,153.5C 6.5,153.5 7.5,153.5 8.5,153.5C 7.35333,147.82 7.35333,142.153 8.5,136.5C 9.10978,135.609 9.44312,134.609 9.5,133.5C 8.23726,129.886 8.23726,126.219 9.5,122.5C 8.83333,120.5 8.16667,118.5 7.5,116.5C 10.4621,113.612 9.79539,112.279 5.5,112.5C 5.5,110.833 5.5,109.167 5.5,107.5C 8.16667,106.833 8.16667,106.167 5.5,105.5C 5.5,104.5 5.5,103.5 5.5,102.5C 6.58617,102.38 7.25284,101.713 7.5,100.5C 7.25284,99.2867 6.58617,98.62 5.5,98.5C 5.5,96.1667 5.5,93.8333 5.5,91.5C 6.64911,91.2089 7.31577,90.3756 7.5,89C 6.888,78.0142 6.22133,67.1808 5.5,56.5C 5.5,55.1667 5.5,53.8333 5.5,52.5C 6.49162,52.6716 7.15829,52.3382 7.5,51.5C 9.99466,47.3893 11.6613,42.8893 12.5,38C 12.2716,37.6012 11.9382,37.4346 11.5,37.5C 11.5,37.1667 11.5,36.8333 11.5,36.5C 12.4959,36.5858 13.3292,36.2524 14,35.5C 15.3426,32.1381 17.176,29.1381 19.5,26.5C 22.5,24.1667 25.1667,21.5 27.5,18.5C 31.1664,16.4956 34.1664,13.8289 36.5,10.5C 36.8333,10.5 37.1667,10.5 37.5,10.5C 42.2404,9.70799 46.2404,7.70799 49.5,4.5C 49.8333,4.5 50.1667,4.5 50.5,4.5C 52.4832,4.84316 53.8166,4.17649 54.5,2.5 Z M 128.5,286.5 C 129.718,287.161 131.051,287.828 132.5,288.5C 132.333,288.833 132.167,289.167 132,289.5C 129.619,290.435 127.119,290.768 124.5,290.5C 122.878,291.122 121.545,292.122 120.5,293.5C 115.4,292.2 110.4,292.2 105.5,293.5C 102.531,292.671 99.5314,292.505 96.5,293C 95.7476,293.671 95.4142,294.504 95.5,295.5C 93.8333,295.5 92.1667,295.5 90.5,295.5C 89.596,294.791 89.2627,293.791 89.5,292.5C 87.2188,292.923 85.5521,292.256 84.5,290.5C 86.1667,290.5 87.8333,290.5 89.5,290.5C 89.33,289.178 89.6634,288.011 90.5,287C 103.162,286.5 115.829,286.333 128.5,286.5 Z"/></g>
<g><path style="opacity:0.451" fill="#949494" d="M 54.5,2.5 C 53.8166,4.17649 52.4832,4.84316 50.5,4.5C 51.1834,2.82351 52.5168,2.15684 54.5,2.5 Z"/></g>
<g><path style="opacity:0.286" fill="#646464" d="M 148.5,4.5 C 150.415,4.21552 152.081,4.54885 153.5,5.5C 152.903,6.13863 152.07,6.47196 151,6.5C 149.624,6.31577 148.791,5.64911 148.5,4.5 Z"/></g>
<g><path style="opacity:0.82" fill="#8e8e8e" d="M 176.5,4.5 C 179.713,4.19 182.713,4.52333 185.5,5.5C 184.609,6.10978 183.609,6.44312 182.5,6.5C 179.918,6.97461 177.918,6.30794 176.5,4.5 Z"/></g>
<g><path style="opacity:0.671" fill="#505050" d="M 195.5,4.5 C 195.119,5.93112 194.119,6.76445 192.5,7C 188.973,7.8075 185.64,7.64084 182.5,6.5C 183.609,6.44312 184.609,6.10978 185.5,5.5C 188.881,5.54046 192.214,5.20713 195.5,4.5 Z"/></g>
<g><path style="opacity:0.506" fill="#898989" d="M 49.5,4.5 C 46.2404,7.70799 42.2404,9.70799 37.5,10.5C 37.4701,9.50278 37.9701,8.83611 39,8.5C 42.3132,6.61913 45.8132,5.2858 49.5,4.5 Z"/></g>
<g><path style="opacity:0.341" fill="#6f6f6f" d="M 217.5,5.5 C 218.778,5.78219 219.778,6.44886 220.5,7.5C 220.483,9.02811 219.816,9.52811 218.5,9C 217.663,7.98873 217.33,6.82207 217.5,5.5 Z"/></g>
<g><path style="opacity:0.414" fill="#f1f1f1" d="M 259.5,10.5 C 257.167,10.5 254.833,10.5 252.5,10.5C 253.152,9.27493 254.319,8.60826 256,8.5C 257.681,8.60826 258.848,9.27493 259.5,10.5 Z"/></g>
<g><path style="opacity:0.87" fill="#cccccc" d="M 252.5,10.5 C 254.833,10.5 257.167,10.5 259.5,10.5C 259.5,11.8333 259.5,13.1667 259.5,14.5C 257.167,14.5 254.833,14.5 252.5,14.5C 252.5,13.1667 252.5,11.8333 252.5,10.5 Z"/></g>
<g><path style="opacity:0.078" fill="#686868" d="M 242.5,8.5 C 244.308,9.91791 244.975,11.9179 244.5,14.5C 241.833,15.1667 239.167,15.8333 236.5,16.5C 237.392,13.7079 239.392,12.3746 242.5,12.5C 242.5,11.1667 242.5,9.83333 242.5,8.5 Z"/></g>
<g><path style="opacity:0.239" fill="#a0a0a0" d="M 36.5,10.5 C 34.1664,13.8289 31.1664,16.4956 27.5,18.5C 23.8333,20.1667 21.1667,22.8333 19.5,26.5C 17.176,29.1381 15.3426,32.1381 14,35.5C 13.3292,36.2524 12.4959,36.5858 11.5,36.5C 16.0596,24.2725 24.3929,15.6058 36.5,10.5 Z"/></g>
<g><path style="opacity:0.444" fill="#f7f7f7" d="M 270.5,17.5 C 272.5,17.5 274.5,17.5 276.5,17.5C 276.5,19.5 276.5,21.5 276.5,23.5C 274.5,23.5 272.5,23.5 270.5,23.5C 270.5,21.5 270.5,19.5 270.5,17.5 Z"/></g>
<g><path style="opacity:0.682" fill="#494949" d="M 245.5,17.5 C 247.781,17.0773 249.448,17.744 250.5,19.5C 249.081,20.4511 247.415,20.7845 245.5,20.5C 245.5,19.5 245.5,18.5 245.5,17.5 Z"/></g>
<g><path style="opacity:0.729" fill="#3d3d3d" d="M 27.5,18.5 C 25.1667,21.5 22.5,24.1667 19.5,26.5C 21.1667,22.8333 23.8333,20.1667 27.5,18.5 Z"/></g>
<g><path style="opacity:0.096" fill="#b6b6b6" d="M 263.5,23.5 C 264.833,23.5 265.5,24.1667 265.5,25.5C 265.5,24.1667 264.833,23.5 263.5,23.5 Z"/></g>
<g><path style="opacity:0.898" fill="#3f3f3f" d="M 257.5,20.5 C 259.397,21.6496 261.397,22.6496 263.5,23.5C 263.5,24.8333 264.167,25.5 265.5,25.5C 266.609,25.5569 267.609,25.8902 268.5,26.5C 268.5,27.1667 268.5,27.8333 268.5,28.5C 263.387,27.5435 259.72,24.8768 257.5,20.5 Z"/></g>
<g><path style="opacity:0.527" fill="#bcbcbc" d="M 286.5,32.5 C 284.442,31.0669 282.108,30.4003 279.5,30.5C 280.523,28.1542 281.523,25.8209 282.5,23.5C 286.003,23.3351 288.003,25.0018 288.5,28.5C 288.197,30.1143 287.53,31.4477 286.5,32.5 Z"/></g>
<g><path style="opacity:0.259" fill="#b1b1b1" d="M 268.5,26.5 C 271.959,29.7476 275.626,32.7476 279.5,35.5C 279.5,36.1667 279.5,36.8333 279.5,37.5C 277.589,36.925 275.922,35.925 274.5,34.5C 272.833,32.1667 270.833,30.1667 268.5,28.5C 268.5,27.8333 268.5,27.1667 268.5,26.5 Z"/></g>
<g><path style="opacity:0.582" fill="#303030" d="M 279.5,30.5 C 282.108,30.4003 284.442,31.0669 286.5,32.5C 286.833,32.5 287.167,32.5 287.5,32.5C 287.5,35.1667 287.5,37.8333 287.5,40.5C 286.833,40.5 286.167,40.5 285.5,40.5C 284.838,38.5295 284.172,36.5295 283.5,34.5C 282.311,33.5713 280.978,33.238 279.5,33.5C 279.5,32.5 279.5,31.5 279.5,30.5 Z"/></g>
<g><path style="opacity:0.498" fill="#7e7e7e" d="M 287.5,32.5 C 289.256,33.5521 289.923,35.2188 289.5,37.5C 290.5,37.5 291.5,37.5 292.5,37.5C 292.5,39.1667 292.5,40.8333 292.5,42.5C 291.167,42.5 289.833,42.5 288.5,42.5C 288.672,41.5084 288.338,40.8417 287.5,40.5C 287.5,37.8333 287.5,35.1667 287.5,32.5 Z"/></g>
<g><path style="opacity:0.827" fill="#353535" d="M 11.5,37.5 C 11.9382,37.4346 12.2716,37.6012 12.5,38C 11.6613,42.8893 9.99466,47.3893 7.5,51.5C 7.5,50.1667 7.5,48.8333 7.5,47.5C 7.23549,43.3467 8.56882,40.0133 11.5,37.5 Z"/></g>
<g><path style="opacity:0.416" fill="#7e7e7e" d="M 288.5,45.5 C 289.649,45.7911 290.316,46.6244 290.5,48C 290.316,49.3756 289.649,50.2089 288.5,50.5C 288.5,48.8333 288.5,47.1667 288.5,45.5 Z"/></g>
<g><path style="opacity:0.355" fill="#888888" d="M 7.5,47.5 C 7.5,48.8333 7.5,50.1667 7.5,51.5C 7.15829,52.3382 6.49162,52.6716 5.5,52.5C 5.07729,50.2188 5.74395,48.5521 7.5,47.5 Z"/></g>
<g><path style="opacity:0.137" fill="#7c7c7c" d="M 279.5,33.5 C 280.978,33.238 282.311,33.5713 283.5,34.5C 284.172,36.5295 284.838,38.5295 285.5,40.5C 283.554,40.1928 281.887,40.1928 280.5,40.5C 282.751,43.9287 284.418,47.5953 285.5,51.5C 284.5,51.5 283.5,51.5 282.5,51.5C 282.162,49.146 281.662,46.8127 281,44.5C 278.978,40.9965 276.811,37.6632 274.5,34.5C 275.922,35.925 277.589,36.925 279.5,37.5C 280.734,37.7151 280.734,37.0484 279.5,35.5C 279.5,34.8333 279.5,34.1667 279.5,33.5 Z"/></g>
<g><path style="opacity:0.114" fill="#636363" d="M 292.5,44.5 C 295.164,45.8494 296.831,48.0161 297.5,51C 297.392,52.6811 296.725,53.8478 295.5,54.5C 295.5,50.846 294.5,47.5126 292.5,44.5 Z"/></g>
<g><path style="opacity:0.829" fill="#2e2e2e" d="M 285.5,52.5 C 286.479,55.6248 286.813,58.9581 286.5,62.5C 286.5,63.5 286.5,64.5 286.5,65.5C 287.959,65.5674 289.292,65.2341 290.5,64.5C 289.082,66.3079 287.082,66.9746 284.5,66.5C 284.181,61.6367 284.514,56.97 285.5,52.5 Z"/></g>
<g><path style="opacity:0.4" fill="#4b4b4b" d="M 295.5,54.5 C 295.5,60.8333 295.5,67.1667 295.5,73.5C 294.833,73.8333 294.167,74.1667 293.5,74.5C 292.874,67.4163 293.541,60.7496 295.5,54.5 Z"/></g>
<g><path style="opacity:1" fill="#4d4f10" d="M 232.5,68.5 C 231.167,68.5 229.833,68.5 228.5,68.5C 226.708,67.6909 224.708,67.1909 222.5,67C 216.167,66.8333 209.833,66.6667 203.5,66.5C 194.609,66.2875 185.942,66.9541 177.5,68.5C 176.167,68.5 174.833,68.5 173.5,68.5C 177.282,67.0083 181.282,65.8417 185.5,65C 197.167,64.3333 208.833,64.3333 220.5,65C 224.715,65.8549 228.715,67.0215 232.5,68.5 Z"/></g>
<g><path style="opacity:0.702" fill="#7f7f7f" d="M 288.5,60.5 C 290.176,61.1834 290.843,62.5168 290.5,64.5C 289.292,65.2341 287.959,65.5674 286.5,65.5C 286.5,64.5 286.5,63.5 286.5,62.5C 287.833,62.5 288.5,61.8333 288.5,60.5 Z"/></g>
<g><path style="opacity:1" fill="#34350d" d="M 128.5,79.5 C 128.167,79.5 127.833,79.5 127.5,79.5C 127.5,78.5 127.5,77.5 127.5,76.5C 127.784,73.2234 127.451,70.0567 126.5,67C 116.864,67.324 107.197,67.4907 97.5,67.5C 99.2922,66.6909 101.292,66.1909 103.5,66C 111.5,65.3333 119.5,65.3333 127.5,66C 128.467,70.4014 128.8,74.9014 128.5,79.5 Z"/></g>
<g><path style="opacity:1" fill="#dce02b" d="M 228.5,68.5 C 232.666,71.2082 237.333,72.5416 242.5,72.5C 242.842,73.3382 243.508,73.6716 244.5,73.5C 246.033,75.2451 248.033,76.2451 250.5,76.5C 252.354,77.241 254.021,78.241 255.5,79.5C 255.833,80.1667 256.167,80.8333 256.5,81.5C 259.507,85.5053 262.507,89.5053 265.5,93.5C 266.738,95.2143 267.405,97.2143 267.5,99.5C 270.512,113.347 268.179,126.013 260.5,137.5C 256.3,140.46 251.634,142.46 246.5,143.5C 245.833,147.5 247.5,149.167 251.5,148.5C 254.127,150.601 257.127,151.934 260.5,152.5C 262.833,155.5 265.5,158.167 268.5,160.5C 275.368,171.91 277.368,184.243 274.5,197.5C 273.662,197.842 273.328,198.508 273.5,199.5C 270.591,202.981 267.925,206.648 265.5,210.5C 265.5,210.833 265.5,211.167 265.5,211.5C 263.118,212.351 261.118,213.684 259.5,215.5C 256.669,216.079 254.336,217.412 252.5,219.5C 249.284,219.345 246.617,220.345 244.5,222.5C 244.167,222.5 243.833,222.5 243.5,222.5C 239.96,222.753 236.627,223.419 233.5,224.5C 230.713,225.477 227.713,225.81 224.5,225.5C 208.492,225.467 192.492,225.134 176.5,224.5C 176.389,223.883 176.056,223.383 175.5,223C 172.854,222.503 170.187,222.336 167.5,222.5C 163.915,220.194 159.915,218.861 155.5,218.5C 153.852,217.223 152.018,216.223 150,215.5C 149.333,169.167 149.333,122.833 150,76.5C 153.35,76.0816 156.184,74.7482 158.5,72.5C 159.833,72.5 161.167,72.5 162.5,72.5C 168.014,72.6708 173.014,71.3375 177.5,68.5C 185.942,66.9541 194.609,66.2875 203.5,66.5C 209.833,66.6667 216.167,66.8333 222.5,67C 224.708,67.1909 226.708,67.6909 228.5,68.5 Z"/></g>
<g><path style="opacity:1" fill="#9a9c1e" d="M 127.5,76.5 C 126.469,74.0392 125.802,71.3725 125.5,68.5C 109.813,68.7867 94.1466,69.4534 78.5,70.5C 78.4704,81.181 78.8037,91.8477 79.5,102.5C 79.1667,102.5 78.8333,102.5 78.5,102.5C 78.552,100.097 78.2186,97.7638 77.5,95.5C 77.4051,87.1413 77.2385,78.8079 77,70.5C 83.8416,68.9773 90.6749,67.9773 97.5,67.5C 107.197,67.4907 116.864,67.324 126.5,67C 127.451,70.0567 127.784,73.2234 127.5,76.5 Z"/></g>
<g><path style="opacity:1" fill="#dce02b" d="M 127.5,76.5 C 127.5,77.5 127.5,78.5 127.5,79.5C 127.667,105.502 127.5,131.502 127,157.5C 126.432,167.736 124.932,177.736 122.5,187.5C 119.896,192.375 117.562,197.375 115.5,202.5C 114.5,203.167 113.5,203.833 112.5,204.5C 106.044,210.887 99.0442,216.554 91.5,221.5C 89.847,221.66 88.5137,222.326 87.5,223.5C 83.8333,224.167 80.1667,224.833 76.5,225.5C 64.4306,225.787 52.4306,225.12 40.5,223.5C 37.4211,221.464 34.0878,219.798 30.5,218.5C 27.728,216.272 24.728,214.272 21.5,212.5C 20.5672,208.571 20.2338,204.571 20.5,200.5C 20.5,200.167 20.5,199.833 20.5,199.5C 23.2374,192.629 24.2374,185.295 23.5,177.5C 23.5,177.167 23.5,176.833 23.5,176.5C 24.3434,173.187 25.6767,170.187 27.5,167.5C 29.9754,170.241 32.9754,172.241 36.5,173.5C 37.6874,175.975 39.6874,176.975 42.5,176.5C 43.842,177.793 45.5087,178.626 47.5,179C 53.3487,179.818 59.0154,179.652 64.5,178.5C 67.2257,178.736 69.559,177.903 71.5,176C 74.2157,172.729 76.549,169.229 78.5,165.5C 79.5585,164.4 80.3918,163.066 81,161.5C 83.3433,150.273 84.01,138.94 83,127.5C 82.6174,126.944 82.1174,126.611 81.5,126.5C 81.5875,118.291 80.9208,110.291 79.5,102.5C 78.8037,91.8477 78.4704,81.181 78.5,70.5C 94.1466,69.4534 109.813,68.7867 125.5,68.5C 125.802,71.3725 126.469,74.0392 127.5,76.5 Z"/></g>
<g><path style="opacity:0.82" fill="#636363" d="M 5.5,56.5 C 6.22133,67.1808 6.888,78.0142 7.5,89C 7.31577,90.3756 6.64911,91.2089 5.5,91.5C 4.26766,79.6819 4.26766,68.0152 5.5,56.5 Z"/></g>
<g><path style="opacity:1" fill="#43440e" d="M 233.5,68.5 C 235.898,68.2594 237.898,68.9261 239.5,70.5C 237.102,70.7406 235.102,70.0739 233.5,68.5 Z"/></g>
<g><path style="opacity:1" fill="#3c3e0d" d="M 97.5,67.5 C 90.6749,67.9773 83.8416,68.9773 77,70.5C 77.2385,78.8079 77.4051,87.1413 77.5,95.5C 76.2617,87.0113 75.7617,78.3447 76,69.5C 76.7504,68.8742 77.5838,68.3742 78.5,68C 84.8246,67.5005 91.1579,67.3338 97.5,67.5 Z"/></g>
<g><path style="opacity:1" fill="#a9ac21" d="M 228.5,68.5 C 229.833,68.5 231.167,68.5 232.5,68.5C 232.833,68.5 233.167,68.5 233.5,68.5C 235.102,70.0739 237.102,70.7406 239.5,70.5C 240.71,70.9321 241.71,71.5987 242.5,72.5C 237.333,72.5416 232.666,71.2082 228.5,68.5 Z"/></g>
<g><path style="opacity:1" fill="#626414" d="M 167.5,69.5 C 165.58,70.0652 163.913,71.0652 162.5,72.5C 161.167,72.5 159.833,72.5 158.5,72.5C 160.923,70.1449 163.923,69.1449 167.5,69.5 Z"/></g>
<g><path style="opacity:1" fill="#b7ba24" d="M 173.5,68.5 C 174.833,68.5 176.167,68.5 177.5,68.5C 173.014,71.3375 168.014,72.6708 162.5,72.5C 163.913,71.0652 165.58,70.0652 167.5,69.5C 169.435,68.8505 171.435,68.5172 173.5,68.5 Z"/></g>
<g><path style="opacity:1" fill="#696b15" d="M 244.5,73.5 C 247.313,73.0246 249.313,74.0246 250.5,76.5C 248.033,76.2451 246.033,75.2451 244.5,73.5 Z"/></g>
<g><path style="opacity:0.51" fill="#757575" d="M 295.5,73.5 C 295.167,74.8333 294.833,76.1667 294.5,77.5C 292.855,79.7737 291.355,79.7737 290,77.5C 289.667,77.8333 289.333,78.1667 289,78.5C 289.291,82.7738 289.457,87.1071 289.5,91.5C 288.5,91.5 287.5,91.5 286.5,91.5C 286.569,86.1463 286.902,80.813 287.5,75.5C 289.735,75.7947 291.735,75.4614 293.5,74.5C 294.167,74.1667 294.833,73.8333 295.5,73.5 Z"/></g>
<g><path style="opacity:1" fill="#3e400d" d="M 255.5,79.5 C 258.833,80.8333 261.167,83.1667 262.5,86.5C 260.5,84.8333 258.5,83.1667 256.5,81.5C 256.167,80.8333 255.833,80.1667 255.5,79.5 Z"/></g>
<g><path style="opacity:0.988" fill="#1c1c1c" d="M 294.5,77.5 C 295.5,77.5 296.5,77.5 297.5,77.5C 297.5,81.5 297.5,85.5 297.5,89.5C 296.414,89.62 295.747,90.2867 295.5,91.5C 295.747,92.7133 296.414,93.38 297.5,93.5C 297.5,96.1667 297.5,98.8333 297.5,101.5C 295.656,102.204 295.156,103.537 296,105.5C 296.671,106.252 297.504,106.586 298.5,106.5C 298.5,108.167 298.5,109.833 298.5,111.5C 296.787,112.635 296.12,114.302 296.5,116.5C 295.662,116.842 295.328,117.508 295.5,118.5C 293.5,118.167 291.5,117.833 289.5,117.5C 289.054,114.99 289.72,112.99 291.5,111.5C 292.146,105.49 292.146,99.4897 291.5,93.5C 290.041,93.4326 288.708,93.7659 287.5,94.5C 286.89,93.609 286.557,92.609 286.5,91.5C 287.5,91.5 288.5,91.5 289.5,91.5C 289.457,87.1071 289.291,82.7738 289,78.5C 289.333,78.1667 289.667,77.8333 290,77.5C 291.355,79.7737 292.855,79.7737 294.5,77.5 Z"/></g>
<g><path style="opacity:1" fill="#8d901c" d="M 256.5,81.5 C 258.5,83.1667 260.5,84.8333 262.5,86.5C 263.89,87.8993 264.89,89.5659 265.5,91.5C 265.5,92.1667 265.5,92.8333 265.5,93.5C 262.507,89.5053 259.507,85.5053 256.5,81.5 Z"/></g>
<g><path style="opacity:0.394" fill="#8e8e8e" d="M 297.5,89.5 C 297.5,90.8333 297.5,92.1667 297.5,93.5C 296.414,93.38 295.747,92.7133 295.5,91.5C 295.747,90.2867 296.414,89.62 297.5,89.5 Z"/></g>
<g><path style="opacity:1" fill="#515310" d="M 265.5,91.5 C 269.647,97.5469 271.647,104.38 271.5,112C 271.041,116.172 270.541,120.338 270,124.5C 269.722,125.416 269.222,126.082 268.5,126.5C 269.532,118.528 269.698,110.528 269,102.5C 268.768,101.263 268.268,100.263 267.5,99.5C 267.405,97.2143 266.738,95.2143 265.5,93.5C 265.5,92.8333 265.5,92.1667 265.5,91.5 Z"/></g>
<g><path style="opacity:0.655" fill="#8c8c8c" d="M 5.5,98.5 C 6.58617,98.62 7.25284,99.2867 7.5,100.5C 7.25284,101.713 6.58617,102.38 5.5,102.5C 5.5,101.167 5.5,99.8333 5.5,98.5 Z"/></g>
<g><path style="opacity:1" fill="#7e7e7e" d="M 291.5,111.5 C 291.5,108.833 291.5,106.167 291.5,103.5C 290.5,103.5 289.5,103.5 288.5,103.5C 287.597,100.609 287.264,97.6085 287.5,94.5C 288.708,93.7659 290.041,93.4326 291.5,93.5C 292.146,99.4897 292.146,105.49 291.5,111.5 Z"/></g>
<g><path style="opacity:0.171" fill="#e3e3e3" d="M 297.5,101.5 C 297.629,103.216 297.962,104.883 298.5,106.5C 297.504,106.586 296.671,106.252 296,105.5C 295.156,103.537 295.656,102.204 297.5,101.5 Z"/></g>
<g><path style="opacity:1" fill="#e0e0e0" d="M 288.5,103.5 C 289.5,103.5 290.5,103.5 291.5,103.5C 291.5,106.167 291.5,108.833 291.5,111.5C 289.72,112.99 289.054,114.99 289.5,117.5C 288.883,117.611 288.383,117.944 288,118.5C 287.501,113.845 287.334,109.179 287.5,104.5C 287.5,103.833 287.833,103.5 288.5,103.5 Z"/></g>
<g><path style="opacity:0.282" fill="#a2a2a2" d="M 5.5,105.5 C 8.16667,106.167 8.16667,106.833 5.5,107.5C 5.5,106.833 5.5,106.167 5.5,105.5 Z"/></g>
<g><path style="opacity:1" fill="#a9ac21" d="M 267.5,99.5 C 268.268,100.263 268.768,101.263 269,102.5C 269.698,110.528 269.532,118.528 268.5,126.5C 266.6,130.732 263.933,134.399 260.5,137.5C 268.179,126.013 270.512,113.347 267.5,99.5 Z"/></g>
<g><path style="opacity:0.472" fill="#404040" d="M 5.5,112.5 C 9.79539,112.279 10.4621,113.612 7.5,116.5C 8.16667,118.5 8.83333,120.5 9.5,122.5C 8.23726,126.219 8.23726,129.886 9.5,133.5C 7.59771,130.663 6.93104,127.329 7.5,123.5C 6.04748,120.014 5.38081,116.347 5.5,112.5 Z"/></g>
<g><path style="opacity:0.518" fill="#949494" d="M 298.5,111.5 C 298.923,113.781 298.256,115.448 296.5,116.5C 296.12,114.302 296.787,112.635 298.5,111.5 Z"/></g>
<g><path style="opacity:1" fill="#c0c426" d="M 127.5,79.5 C 127.833,79.5 128.167,79.5 128.5,79.5C 129.492,87.3159 129.826,95.3159 129.5,103.5C 130.135,126.902 129.301,150.236 127,173.5C 125.388,177.732 124.221,182.066 123.5,186.5C 123.5,186.833 123.5,187.167 123.5,187.5C 123.167,187.5 122.833,187.5 122.5,187.5C 124.932,177.736 126.432,167.736 127,157.5C 127.5,131.502 127.667,105.502 127.5,79.5 Z"/></g>
<g><path style="opacity:1" fill="#646514" d="M 129.5,103.5 C 130.117,103.611 130.617,103.944 131,104.5C 132.439,128.338 131.439,152.005 128,175.5C 126.875,178.784 125.875,182.117 125,185.5C 124.617,186.056 124.117,186.389 123.5,186.5C 124.221,182.066 125.388,177.732 127,173.5C 129.301,150.236 130.135,126.902 129.5,103.5 Z"/></g>
<g><path style="opacity:1" fill="#545511" d="M 212.5,111.5 C 213.694,112.272 214.694,113.272 215.5,114.5C 217.752,114.916 219.252,116.249 220,118.5C 222.138,126.351 219.638,132.185 212.5,136C 208.249,137.195 203.915,137.695 199.5,137.5C 199.169,129.472 199.502,121.472 200.5,113.5C 204.288,111.744 208.288,111.078 212.5,111.5 Z"/></g>
<g><path style="opacity:1" fill="#060601" d="M 215.5,114.5 C 218.903,119.424 219.403,124.757 217,130.5C 212.512,135.042 207.012,137.042 200.5,136.5C 200.5,129.167 200.5,121.833 200.5,114.5C 205.491,113.248 210.491,113.248 215.5,114.5 Z"/></g>
<g><path style="opacity:1" fill="#444444" d="M 287.5,104.5 C 287.334,109.179 287.501,113.845 288,118.5C 288.383,117.944 288.883,117.611 289.5,117.5C 289.884,119.665 289.217,121.332 287.5,122.5C 286.183,116.346 286.183,110.346 287.5,104.5 Z"/></g>
<g><path style="opacity:1" fill="#c2c626" d="M 212.5,111.5 C 208.288,111.078 204.288,111.744 200.5,113.5C 199.502,121.472 199.169,129.472 199.5,137.5C 197.532,129.567 196.865,121.234 197.5,112.5C 200.687,111.248 204.02,110.582 207.5,110.5C 209.369,110.507 211.036,110.84 212.5,111.5 Z"/></g>
<g><path style="opacity:1" fill="#bcc025" d="M 81.5,126.5 C 82.1174,126.611 82.6174,126.944 83,127.5C 84.01,138.94 83.3433,150.273 81,161.5C 80.3918,163.066 79.5585,164.4 78.5,165.5C 78.8333,162.833 79.1667,160.167 79.5,157.5C 79.5,156.833 79.5,156.167 79.5,155.5C 80.2679,154.737 80.7679,153.737 81,152.5C 81.4998,143.84 81.6664,135.173 81.5,126.5 Z"/></g>
<g><path style="opacity:0.394" fill="#797979" d="M 7.5,123.5 C 6.93104,127.329 7.59771,130.663 9.5,133.5C 9.44312,134.609 9.10978,135.609 8.5,136.5C 7.77765,137.551 6.77765,138.218 5.5,138.5C 4.89166,133.056 5.55833,128.056 7.5,123.5 Z"/></g>
<g><path style="opacity:1" fill="#5c5e12" d="M 78.5,102.5 C 78.8333,102.5 79.1667,102.5 79.5,102.5C 80.9208,110.291 81.5875,118.291 81.5,126.5C 81.6664,135.173 81.4998,143.84 81,152.5C 80.7679,153.737 80.2679,154.737 79.5,155.5C 79.6779,137.819 79.3446,120.152 78.5,102.5 Z"/></g>
<g><path style="opacity:1" fill="#5e6112" d="M 158.5,72.5 C 156.184,74.7482 153.35,76.0816 150,76.5C 149.333,122.833 149.333,169.167 150,215.5C 152.018,216.223 153.852,217.223 155.5,218.5C 157.5,219.5 159.5,220.5 161.5,221.5C 156.703,221.293 152.537,219.626 149,216.5C 148.333,169.5 148.333,122.5 149,75.5C 151.943,73.7774 155.11,72.7774 158.5,72.5 Z"/></g>
<g><path style="opacity:0.655" fill="#2e2e2e" d="M 8.5,136.5 C 7.35333,142.153 7.35333,147.82 8.5,153.5C 7.5,153.5 6.5,153.5 5.5,153.5C 5.5,148.5 5.5,143.5 5.5,138.5C 6.77765,138.218 7.77765,137.551 8.5,136.5 Z"/></g>
<g><path style="opacity:1" fill="#95981d" d="M 260.5,137.5 C 257.56,140.977 253.893,143.477 249.5,145C 248.288,146.107 248.621,146.607 250.5,146.5C 250.833,147.167 251.167,147.833 251.5,148.5C 247.5,149.167 245.833,147.5 246.5,143.5C 251.634,142.46 256.3,140.46 260.5,137.5 Z"/></g>
<g><path style="opacity:0.533" fill="#919191" d="M 291.5,146.5 C 290.909,147.151 290.243,147.818 289.5,148.5C 290.612,149.265 291.279,150.265 291.5,151.5C 288.224,150.878 286.891,148.878 287.5,145.5C 289.099,145.232 290.432,145.566 291.5,146.5 Z"/></g>
<g><path style="opacity:1" fill="#47490f" d="M 250.5,146.5 C 254.605,147.283 257.939,149.283 260.5,152.5C 257.127,151.934 254.127,150.601 251.5,148.5C 251.167,147.833 250.833,147.167 250.5,146.5 Z"/></g>
<g><path style="opacity:1" fill="#505110" d="M 260.5,152.5 C 264.167,154.167 266.833,156.833 268.5,160.5C 265.5,158.167 262.833,155.5 260.5,152.5 Z"/></g>
<g><path style="opacity:1" fill="#a4a720" d="M 199.5,159.5 C 204.316,158.35 209.316,158.184 214.5,159C 215.381,159.708 216.047,160.542 216.5,161.5C 215.833,161.5 215.167,161.5 214.5,161.5C 214.389,160.883 214.056,160.383 213.5,160C 208.845,159.501 204.179,159.334 199.5,159.5 Z"/></g>
<g><path style="opacity:0.459" fill="#868686" d="M 291.5,155.5 C 291.5,156.167 291.5,156.833 291.5,157.5C 290.533,158.806 289.199,159.473 287.5,159.5C 287.5,158.167 287.5,156.833 287.5,155.5C 288.833,155.5 290.167,155.5 291.5,155.5 Z"/></g>
<g><path style="opacity:1" fill="#020300" d="M 214.5,161.5 C 218.401,166.042 219.568,171.375 218,177.5C 216.961,178.244 216.461,179.244 216.5,180.5C 211.567,183.054 206.4,183.721 201,182.5C 200.5,175.174 200.334,167.841 200.5,160.5C 205.23,160.283 209.897,160.617 214.5,161.5 Z"/></g>
<g><path style="opacity:0.961" fill="#595959" d="M 293.5,157.5 C 295.308,158.918 295.975,160.918 295.5,163.5C 294.5,164.167 293.5,164.833 292.5,165.5C 292.833,162.833 293.167,160.167 293.5,157.5 Z"/></g>
<g><path style="opacity:0.105" fill="#e4e4e4" d="M 295.5,163.5 C 295.741,166.034 294.741,167.7 292.5,168.5C 292.5,167.5 292.5,166.5 292.5,165.5C 293.5,164.833 294.5,164.167 295.5,163.5 Z"/></g>
<g><path style="opacity:0.39" fill="#5d5d5d" d="M 5.5,158.5 C 7.45888,164.75 8.12555,171.416 7.5,178.5C 5.54112,172.25 4.87445,165.584 5.5,158.5 Z"/></g>
<g><path style="opacity:1" fill="#505210" d="M 214.5,161.5 C 215.167,161.5 215.833,161.5 216.5,161.5C 220.274,165.772 221.441,170.772 220,176.5C 219.34,178.324 218.173,179.657 216.5,180.5C 216.461,179.244 216.961,178.244 218,177.5C 219.568,171.375 218.401,166.042 214.5,161.5 Z"/></g>
<g><path style="opacity:0.822" fill="#797979" d="M 292.5,170.5 C 293.502,172.011 294.169,173.678 294.5,175.5C 293.167,175.5 291.833,175.5 290.5,175.5C 290.077,173.219 290.744,171.552 292.5,170.5 Z"/></g>
<g><path style="opacity:1" fill="#525411" d="M 79.5,157.5 C 79.1667,160.167 78.8333,162.833 78.5,165.5C 76.549,169.229 74.2157,172.729 71.5,176C 69.559,177.903 67.2257,178.736 64.5,178.5C 67.4954,176.902 70.3287,174.902 73,172.5C 75.8667,167.71 78.0333,162.71 79.5,157.5 Z"/></g>
<g><path style="opacity:1" fill="#747617" d="M 27.5,167.5 C 25.6767,170.187 24.3434,173.187 23.5,176.5C 23.3359,173.813 23.5026,171.146 24,168.5C 24.9236,166.505 26.0903,166.172 27.5,167.5 Z"/></g>
<g><path style="opacity:1" fill="#48490f" d="M 36.5,173.5 C 38.9674,173.755 40.9674,174.755 42.5,176.5C 39.6874,176.975 37.6874,175.975 36.5,173.5 Z"/></g>
<g><path style="opacity:1" fill="#47480e" d="M 42.5,176.5 C 49.6836,178.242 57.017,178.909 64.5,178.5C 59.0154,179.652 53.3487,179.818 47.5,179C 45.5087,178.626 43.842,177.793 42.5,176.5 Z"/></g>
<g><path style="opacity:1" fill="#929292" d="M 13.5,179.5 C 16.2974,179.967 17.6308,181.633 17.5,184.5C 14.0897,184.616 12.7564,182.95 13.5,179.5 Z"/></g>
<g><path style="opacity:1" fill="#44450f" d="M 268.5,160.5 C 269.815,161.476 271.148,162.476 272.5,163.5C 277.658,174.044 278.825,185.044 276,196.5C 275.617,197.056 275.117,197.389 274.5,197.5C 277.368,184.243 275.368,171.91 268.5,160.5 Z"/></g>
<g><path style="opacity:1" fill="#565811" d="M 199.5,159.5 C 204.179,159.334 208.845,159.501 213.5,160C 214.056,160.383 214.389,160.883 214.5,161.5C 209.897,160.617 205.23,160.283 200.5,160.5C 200.334,167.841 200.5,175.174 201,182.5C 206.4,183.721 211.567,183.054 216.5,180.5C 214.634,183.27 211.968,184.77 208.5,185C 205.007,186.004 201.841,185.504 199,183.5C 198.2,175.421 198.367,167.421 199.5,159.5 Z"/></g>
<g><path style="opacity:0.788" fill="#a1a1a1" d="M 294.5,185.5 C 295.992,186.607 296.992,188.107 297.5,190C 297.138,191.434 296.472,192.601 295.5,193.5C 294.698,194.885 294.031,194.718 293.5,193C 296.39,191.108 296.056,190.275 292.5,190.5C 292.5,189.167 292.5,187.833 292.5,186.5C 292.842,185.662 293.508,185.328 294.5,185.5 Z"/></g>
<g><path style="opacity:1" fill="#91941d" d="M 23.5,177.5 C 24.2374,185.295 23.2374,192.629 20.5,199.5C 20.5045,195.466 20.8379,191.466 21.5,187.5C 21.3354,184.482 21.502,181.482 22,178.5C 22.3826,177.944 22.8826,177.611 23.5,177.5 Z"/></g>
<g><path style="opacity:0.988" fill="#494949" d="M 292.5,186.5 C 292.5,187.833 292.5,189.167 292.5,190.5C 296.056,190.275 296.39,191.108 293.5,193C 294.031,194.718 294.698,194.885 295.5,193.5C 296.765,194.514 297.431,196.014 297.5,198C 296.695,201.166 296.028,204.333 295.5,207.5C 293.516,207.516 292.516,206.516 292.5,204.5C 293.5,202.5 294.5,200.5 295.5,198.5C 295.167,197.833 294.833,197.167 294.5,196.5C 293.571,197.689 293.238,199.022 293.5,200.5C 292.5,200.5 291.5,200.5 290.5,200.5C 290.992,195.676 291.659,191.01 292.5,186.5 Z"/></g>
<g><path style="opacity:1" fill="#3e400e" d="M 122.5,187.5 C 122.833,187.5 123.167,187.5 123.5,187.5C 121.779,191.816 119.945,196.149 118,200.5C 117.292,201.381 116.458,202.047 115.5,202.5C 117.562,197.375 119.896,192.375 122.5,187.5 Z"/></g>
<g><path style="opacity:1" fill="#43440f" d="M 21.5,187.5 C 20.8379,191.466 20.5045,195.466 20.5,199.5C 20.5,199.833 20.5,200.167 20.5,200.5C 19.8333,202.833 19.1667,205.167 18.5,207.5C 18.849,201.16 19.349,194.827 20,188.5C 20.3826,187.944 20.8826,187.611 21.5,187.5 Z"/></g>
<g><path style="opacity:0.198" fill="#909090" d="M 7.5,207.5 C 9.44563,208.035 10.4456,209.368 10.5,211.5C 8.08824,211.306 7.08824,209.973 7.5,207.5 Z"/></g>
<g><path style="opacity:1" fill="#8b8e1b" d="M 273.5,199.5 C 272.054,204.061 269.387,207.728 265.5,210.5C 267.925,206.648 270.591,202.981 273.5,199.5 Z"/></g>
<g><path style="opacity:0.427" fill="#b3b3b3" d="M 10.5,211.5 C 13.1667,212.167 13.1667,212.833 10.5,213.5C 10.5,212.833 10.5,212.167 10.5,211.5 Z"/></g>
<g><path style="opacity:1" fill="#878a1b" d="M 20.5,200.5 C 20.2338,204.571 20.5672,208.571 21.5,212.5C 24.728,214.272 27.728,216.272 30.5,218.5C 29.8333,218.5 29.1667,218.5 28.5,218.5C 22.3329,217.336 18.9996,213.669 18.5,207.5C 19.1667,205.167 19.8333,202.833 20.5,200.5 Z"/></g>
<g><path style="opacity:1" fill="#808319" d="M 112.5,204.5 C 107.2,212.31 100.2,217.977 91.5,221.5C 99.0442,216.554 106.044,210.887 112.5,204.5 Z"/></g>
<g><path style="opacity:1" fill="#45470f" d="M 265.5,211.5 C 264.267,213.796 262.267,215.13 259.5,215.5C 261.118,213.684 263.118,212.351 265.5,211.5 Z"/></g>
<g><path style="opacity:0.522" fill="#6a6a6a" d="M 10.5,213.5 C 10.9275,216.564 11.5942,219.564 12.5,222.5C 9.88327,221.703 8.54993,219.869 8.5,217C 8.60826,215.319 9.27493,214.152 10.5,213.5 Z"/></g>
<g><path style="opacity:1" fill="#525411" d="M 259.5,215.5 C 257.74,217.559 255.406,218.892 252.5,219.5C 254.336,217.412 256.669,216.079 259.5,215.5 Z"/></g>
<g><path style="opacity:1" fill="#373737" d="M 285.5,201.5 C 286.833,201.5 288.167,201.5 289.5,201.5C 289.632,205.219 288.965,208.719 287.5,212C 287.908,213.93 288.575,215.764 289.5,217.5C 289.272,219.397 288.272,220.73 286.5,221.5C 285.503,214.866 285.17,208.2 285.5,201.5 Z"/></g>
<g><path style="opacity:1" fill="#999c1e" d="M 155.5,218.5 C 159.915,218.861 163.915,220.194 167.5,222.5C 165.435,222.483 163.435,222.15 161.5,221.5C 159.5,220.5 157.5,219.5 155.5,218.5 Z"/></g>
<g><path style="opacity:1" fill="#575812" d="M 28.5,218.5 C 29.1667,218.5 29.8333,218.5 30.5,218.5C 34.0878,219.798 37.4211,221.464 40.5,223.5C 39.1266,223.657 37.7932,223.49 36.5,223C 33.5883,221.768 30.9216,220.268 28.5,218.5 Z"/></g>
<g><path style="opacity:1" fill="#535410" d="M 252.5,219.5 C 250.064,220.871 247.397,221.871 244.5,222.5C 246.617,220.345 249.284,219.345 252.5,219.5 Z"/></g>
<g><path style="opacity:0.608" fill="#696969" d="M 14.5,222.5 C 15.5676,221.566 16.901,221.232 18.5,221.5C 18.7148,223.179 18.0481,224.179 16.5,224.5C 16.5,223.167 15.8333,222.5 14.5,222.5 Z"/></g>
<g><path style="opacity:1" fill="#7b7e18" d="M 167.5,222.5 C 170.187,222.336 172.854,222.503 175.5,223C 176.056,223.383 176.389,223.883 176.5,224.5C 173.813,224.664 171.146,224.497 168.5,224C 167.944,223.617 167.611,223.117 167.5,222.5 Z"/></g>
<g><path style="opacity:1" fill="#585a12" d="M 243.5,222.5 C 243.082,223.222 242.416,223.722 241.5,224C 238.854,224.497 236.187,224.664 233.5,224.5C 236.627,223.419 239.96,222.753 243.5,222.5 Z"/></g>
<g><path style="opacity:0.376" fill="#cbcbcb" d="M 14.5,222.5 C 15.8333,222.5 16.5,223.167 16.5,224.5C 15.791,225.404 14.791,225.737 13.5,225.5C 13.5569,224.391 13.8902,223.391 14.5,222.5 Z"/></g>
<g><path style="opacity:1" fill="#7f8119" d="M 40.5,223.5 C 52.4306,225.12 64.4306,225.787 76.5,225.5C 76.5,225.833 76.5,226.167 76.5,226.5C 64.3022,228.15 52.3022,227.15 40.5,223.5 Z"/></g>
<g><path style="opacity:1" fill="#42440e" d="M 87.5,223.5 C 84.3627,225.871 80.6961,226.871 76.5,226.5C 76.5,226.167 76.5,225.833 76.5,225.5C 80.1667,224.833 83.8333,224.167 87.5,223.5 Z"/></g>
<g><path style="opacity:1" fill="#84861a" d="M 176.5,224.5 C 192.492,225.134 208.492,225.467 224.5,225.5C 218.369,226.83 211.869,227.497 205,227.5C 195.093,228.022 185.593,227.022 176.5,224.5 Z"/></g>
<g><path style="opacity:0.569" fill="#727272" d="M 13.5,225.5 C 12.4479,227.256 10.7812,227.923 8.5,227.5C 9.55213,225.744 11.2188,225.077 13.5,225.5 Z"/></g>
<g><path style="opacity:0.396" fill="#afafaf" d="M 294.5,225.5 C 295.468,227.607 295.802,229.941 295.5,232.5C 293.328,233.206 291.328,234.206 289.5,235.5C 289.833,234.167 290.167,232.833 290.5,231.5C 290.347,228.465 291.68,226.465 294.5,225.5 Z"/></g>
<g><path style="opacity:0.816" fill="#6c6c6c" d="M 8.5,229.5 C 10.178,232.31 9.8447,234.643 7.5,236.5C 7.19845,233.941 7.53178,231.607 8.5,229.5 Z"/></g>
<g><path style="opacity:0.412" fill="#454545" d="M 290.5,231.5 C 290.167,232.833 289.833,234.167 289.5,235.5C 288.908,238.127 288.575,240.794 288.5,243.5C 287.833,243.5 287.167,243.5 286.5,243.5C 285.74,238.6 287.074,234.6 290.5,231.5 Z"/></g>
<g><path style="opacity:0.008" fill="#919191" d="M 7.5,240.5 C 9.04814,240.821 9.71481,241.821 9.5,243.5C 7.95186,243.179 7.28519,242.179 7.5,240.5 Z"/></g>
<g><path style="opacity:0.154" fill="#9e9e9e" d="M 286.5,243.5 C 287.167,243.5 287.833,243.5 288.5,243.5C 288.843,245.483 288.176,246.817 286.5,247.5C 286.5,246.167 286.5,244.833 286.5,243.5 Z"/></g>
<g><path style="opacity:0.416" fill="#4c4c4c" d="M 286.5,243.5 C 286.5,244.833 286.5,246.167 286.5,247.5C 286.5,248.5 286.5,249.5 286.5,250.5C 285.029,252.216 284.029,254.216 283.5,256.5C 283.231,260.391 281.565,263.391 278.5,265.5C 281.173,258.125 283.839,250.792 286.5,243.5 Z"/></g>
<g><path style="opacity:0.549" fill="#e3e3e3" d="M 286.5,250.5 C 288.167,250.5 289.833,250.5 291.5,250.5C 291.5,252.5 291.5,254.5 291.5,256.5C 288.833,256.5 286.167,256.5 283.5,256.5C 284.029,254.216 285.029,252.216 286.5,250.5 Z"/></g>
<g><path style="opacity:0.725" fill="#878787" d="M 16.5,250.5 C 17.5694,253.196 16.5694,255.196 13.5,256.5C 13.0311,253.607 14.0311,251.607 16.5,250.5 Z"/></g>
<g><path style="opacity:0.376" fill="#3c3c3c" d="M 13.5,262.5 C 16.1667,262.5 18.8333,262.5 21.5,262.5C 21.5,263.5 21.5,264.5 21.5,265.5C 20.1667,265.5 18.8333,265.5 17.5,265.5C 16.1667,265.5 14.8333,265.5 13.5,265.5C 13.5,264.5 13.5,263.5 13.5,262.5 Z"/></g>
<g><path style="opacity:1" fill="#4a4a4a" d="M 27.5,264.5 C 29.1765,265.183 29.8432,266.517 29.5,268.5C 27.5165,268.383 25.8498,269.05 24.5,270.5C 23.5,270.167 22.8333,269.5 22.5,268.5C 24.7724,267.866 26.4391,266.532 27.5,264.5 Z"/></g>
<g><path style="opacity:0.451" fill="#d1d1d1" d="M 277.5,266.5 C 279.5,266.5 281.5,266.5 283.5,266.5C 283.5,268.5 283.5,270.5 283.5,272.5C 281.5,272.5 279.5,272.5 277.5,272.5C 277.5,270.5 277.5,268.5 277.5,266.5 Z"/></g>
<g><path style="opacity:0.498" fill="#707070" d="M 276.5,267.5 C 276.5,268.167 276.5,268.833 276.5,269.5C 273.833,270.167 272.167,271.833 271.5,274.5C 268.02,276.879 264.353,278.879 260.5,280.5C 260.281,279.325 260.614,278.325 261.5,277.5C 267.059,274.93 272.059,271.596 276.5,267.5 Z"/></g>
<g><path style="opacity:0.096" fill="#f9f9f9" d="M 276.5,269.5 C 275.167,271.5 273.5,273.167 271.5,274.5C 272.167,271.833 273.833,270.167 276.5,269.5 Z"/></g>
<g><path style="opacity:1" fill="#3d3d3d" d="M 30.5,269.5 C 33.1247,270.458 33.1247,271.624 30.5,273C 31.624,273.249 32.624,273.749 33.5,274.5C 30.9368,275.811 29.2701,274.978 28.5,272C 29.0556,270.989 29.7222,270.156 30.5,269.5 Z"/></g>
<g><path style="opacity:1" fill="#a3a3a3" d="M 37.5,273.5 C 39.0481,273.821 39.7148,274.821 39.5,276.5C 36.7524,276.598 36.0857,275.598 37.5,273.5 Z"/></g>
<g><path style="opacity:0.6" fill="#3e3e3e" d="M 17.5,267.5 C 18.5,267.5 19.5,267.5 20.5,267.5C 20.3379,269.527 20.5045,271.527 21,273.5C 23.2841,275.736 24.7841,278.402 25.5,281.5C 20.0333,278.618 17.3666,273.951 17.5,267.5 Z"/></g>
<g><path style="opacity:1" fill="#3d3d3d" d="M 39.5,277.5 C 41.1992,277.34 42.8659,277.506 44.5,278C 43.6634,279.011 43.33,280.178 43.5,281.5C 40.858,281.512 39.5246,280.179 39.5,277.5 Z"/></g>
<g><path style="opacity:0.231" fill="#7c7c7c" d="M 255.5,281.5 C 255.53,282.497 255.03,283.164 254,283.5C 251.566,284.322 249.066,284.656 246.5,284.5C 246.611,283.883 246.944,283.383 247.5,283C 250.168,282.433 252.834,281.933 255.5,281.5 Z"/></g>
<g><path style="opacity:1" fill="#656565" d="M 52.5,281.5 C 54.8825,283.046 57.5491,283.713 60.5,283.5C 60.5,284.833 60.5,286.167 60.5,287.5C 58.2017,286.69 55.8684,285.856 53.5,285C 52.6634,283.989 52.33,282.822 52.5,281.5 Z"/></g>
<g><path style="opacity:1" fill="#505050" d="M 163.5,288.5 C 162.226,287.811 162.226,286.977 163.5,286C 162.552,285.517 161.552,285.351 160.5,285.5C 160.5,287.167 160.5,288.833 160.5,290.5C 159.539,288.735 159.205,286.735 159.5,284.5C 161.5,284.5 163.5,284.5 165.5,284.5C 165.473,286.199 164.806,287.533 163.5,288.5 Z"/></g>
<g><path style="opacity:1" fill="#c3c3c3" d="M 197.5,285.5 C 197.443,286.609 197.11,287.609 196.5,288.5C 196.5,288.833 196.5,289.167 196.5,289.5C 193.873,288.908 191.206,288.575 188.5,288.5C 188.5,287.833 188.167,287.5 187.5,287.5C 186.306,286.728 185.306,285.728 184.5,284.5C 185.274,283.853 186.274,283.52 187.5,283.5C 190.947,284.968 194.28,285.635 197.5,285.5 Z"/></g>
<g><path style="opacity:0.212" fill="#999999" d="M 29.5,284.5 C 33.5365,284.176 36.2032,285.842 37.5,289.5C 34.4846,288.188 31.818,286.521 29.5,284.5 Z"/></g>
<g><path style="opacity:1" fill="#878787" d="M 40.5,285.5 C 42.6648,285.116 44.3315,285.783 45.5,287.5C 42.8301,289.09 41.1634,288.423 40.5,285.5 Z"/></g>
<g><path style="opacity:0.561" fill="#666666" d="M 239.5,284.5 C 236.102,284.18 232.768,284.513 229.5,285.5C 231.022,286.562 232.688,287.229 234.5,287.5C 234.5,288.167 234.5,288.833 234.5,289.5C 233.833,289.833 233.167,290.167 232.5,290.5C 229.915,289.998 227.582,288.831 225.5,287C 221.044,287.102 217.044,286.268 213.5,284.5C 222.334,283.633 231.001,283.633 239.5,284.5 Z"/></g>
<g><path style="opacity:0.157" fill="#b1b1b1" d="M 239.5,284.5 C 239.833,284.5 240.167,284.5 240.5,284.5C 238.844,286.06 236.844,287.06 234.5,287.5C 232.688,287.229 231.022,286.562 229.5,285.5C 232.768,284.513 236.102,284.18 239.5,284.5 Z"/></g>
<g><path style="opacity:0.494" fill="#eeeeee" d="M 249.5,287.5 C 251.5,287.5 253.5,287.5 255.5,287.5C 255.5,289.5 255.5,291.5 255.5,293.5C 253.5,293.5 251.5,293.5 249.5,293.5C 249.5,291.5 249.5,289.5 249.5,287.5 Z"/></g>
<g><path style="opacity:1" fill="#bdbdbd" d="M 163.5,288.5 C 163.5,289.5 163.5,290.5 163.5,291.5C 162.209,291.737 161.209,291.404 160.5,290.5C 160.5,288.833 160.5,287.167 160.5,285.5C 161.552,285.351 162.552,285.517 163.5,286C 162.226,286.977 162.226,287.811 163.5,288.5 Z"/></g>
<g><path style="opacity:0.204" fill="#858585" d="M 207.5,284.5 C 208.502,286.011 209.169,287.678 209.5,289.5C 211.322,289.169 212.989,288.502 214.5,287.5C 213.967,290.525 212.133,291.858 209,291.5C 204.898,290.136 200.731,289.136 196.5,288.5C 197.11,287.609 197.443,286.609 197.5,285.5C 198.742,286.043 200.075,286.377 201.5,286.5C 203.535,285.796 205.535,285.129 207.5,284.5 Z"/></g>
<g><path style="opacity:0.094" fill="#d9d9d9" d="M 217.5,287.5 C 218.833,287.5 219.5,288.167 219.5,289.5C 219.5,288.167 218.833,287.5 217.5,287.5 Z"/></g>
<g><path style="opacity:1" fill="#5e5e5e" d="M 64.5,286.5 C 67.9496,285.756 69.6162,287.09 69.5,290.5C 67.8333,290.5 66.1667,290.5 64.5,290.5C 64.5,289.167 64.5,287.833 64.5,286.5 Z"/></g>
<g><path style="opacity:0.984" fill="#171717" d="M 187.5,287.5 C 188.167,287.5 188.5,287.833 188.5,288.5C 189.609,289.29 190.942,289.79 192.5,290C 192.974,291.729 193.974,292.895 195.5,293.5C 195.5,294.5 195.5,295.5 195.5,296.5C 193.833,296.5 192.167,296.5 190.5,296.5C 189.572,294.401 188.072,292.734 186,291.5C 185.156,289.537 185.656,288.204 187.5,287.5 Z"/></g>
<g><path style="opacity:0.235" fill="#cdcdcd" d="M 234.5,289.5 C 237.082,289.025 239.082,289.692 240.5,291.5C 237.833,291.5 235.167,291.5 232.5,291.5C 232.5,291.167 232.5,290.833 232.5,290.5C 233.167,290.167 233.833,289.833 234.5,289.5 Z"/></g>
<g><path style="opacity:0.947" fill="#6d6d6d" d="M 150.5,296.5 C 148.958,295.699 147.292,295.366 145.5,295.5C 145.077,292.757 146.244,291.424 149,291.5C 152.063,291.935 152.23,292.768 149.5,294C 151.359,294.601 151.692,295.434 150.5,296.5 Z"/></g>
<g><path style="opacity:0.23" fill="#656565" d="M 184.5,284.5 C 185.306,285.728 186.306,286.728 187.5,287.5C 185.656,288.204 185.156,289.537 186,291.5C 188.072,292.734 189.572,294.401 190.5,296.5C 188.5,295.167 186.5,295.167 184.5,296.5C 184.5,295.5 184.5,294.5 184.5,293.5C 183.167,293.5 181.833,293.5 180.5,293.5C 181.452,290.303 182.785,287.303 184.5,284.5 Z"/></g>
<g><path style="opacity:1" fill="#656565" d="M 232.5,291.5 C 235.167,291.5 237.833,291.5 240.5,291.5C 240.5,291.833 240.5,292.167 240.5,292.5C 238.5,292.5 237.5,293.5 237.5,295.5C 235.833,295.5 234.167,295.5 232.5,295.5C 232.5,294.167 232.5,292.833 232.5,291.5 Z"/></g>
<g><path style="opacity:0.408" fill="#636363" d="M 37.5,291.5 C 40.1873,291.336 42.854,291.503 45.5,292C 47.1412,293.129 48.1412,294.629 48.5,296.5C 44.6416,294.897 40.9749,293.23 37.5,291.5 Z"/></g>
<g><path style="opacity:1" fill="#5e5e5e" d="M 73.5,291.5 C 74.5,291.5 75.5,291.5 76.5,291.5C 76.5,292.5 76.5,293.5 76.5,294.5C 75.5,294.5 74.5,294.5 73.5,294.5C 73.5,293.5 73.5,292.5 73.5,291.5 Z"/></g>
<g><path style="opacity:0.251" fill="#bcbcbc" d="M 105.5,293.5 C 110.4,292.2 115.4,292.2 120.5,293.5C 121.833,293.5 123.167,293.5 124.5,293.5C 123.432,294.434 122.099,294.768 120.5,294.5C 120.5,295.833 120.5,297.167 120.5,298.5C 118.784,298.629 117.117,298.962 115.5,299.5C 115.5,298.833 115.5,298.167 115.5,297.5C 117.048,297.179 117.715,296.179 117.5,294.5C 113.881,295.244 110.215,295.577 106.5,295.5C 106.672,294.508 106.338,293.842 105.5,293.5 Z"/></g>
<g><path style="opacity:0.069" fill="#ebebeb" d="M 124.5,290.5 C 124.5,291.5 124.5,292.5 124.5,293.5C 123.167,293.5 121.833,293.5 120.5,293.5C 121.545,292.122 122.878,291.122 124.5,290.5 Z"/></g>
<g><path style="opacity:0.943" fill="#686868" d="M 132.5,291.5 C 131.596,292.209 131.263,293.209 131.5,294.5C 129.194,294.007 126.861,293.674 124.5,293.5C 124.5,292.5 124.5,291.5 124.5,290.5C 127.119,290.768 129.619,290.435 132,289.5C 132.167,289.167 132.333,288.833 132.5,288.5C 131.051,287.828 129.718,287.161 128.5,286.5C 130.223,285.193 132.057,285.193 134,286.5C 134.599,288.535 134.099,290.201 132.5,291.5 Z"/></g>
<g><path style="opacity:0.878" fill="#7b7b7b" d="M 159.5,295.5 C 159.167,295.5 158.833,295.5 158.5,295.5C 155.843,294.521 155.177,292.854 156.5,290.5C 157.952,291.94 158.952,293.606 159.5,295.5 Z"/></g>
<g><path style="opacity:0.9" fill="#757575" d="M 188.5,288.5 C 191.206,288.575 193.873,288.908 196.5,289.5C 196.389,290.117 196.056,290.617 195.5,291C 199.191,291.55 201.857,293.383 203.5,296.5C 201.5,296.5 199.5,296.5 197.5,296.5C 197.715,294.821 197.048,293.821 195.5,293.5C 193.974,292.895 192.974,291.729 192.5,290C 190.942,289.79 189.609,289.29 188.5,288.5 Z"/></g>
<g><path style="opacity:0.216" fill="#242424" d="M 214.5,287.5 C 215.5,287.5 216.5,287.5 217.5,287.5C 217.5,288.833 218.167,289.5 219.5,289.5C 221.176,290.183 221.843,291.517 221.5,293.5C 218.833,293.5 216.167,293.5 213.5,293.5C 213.737,294.791 213.404,295.791 212.5,296.5C 209.5,296.5 206.5,296.5 203.5,296.5C 201.857,293.383 199.191,291.55 195.5,291C 196.056,290.617 196.389,290.117 196.5,289.5C 196.5,289.167 196.5,288.833 196.5,288.5C 200.731,289.136 204.898,290.136 209,291.5C 212.133,291.858 213.967,290.525 214.5,287.5 Z"/></g>
<g><path style="opacity:0.724" fill="#353535" d="M 60.5,299.5 C 57.4486,299.636 54.4486,299.302 51.5,298.5C 50.2867,298.253 49.62,297.586 49.5,296.5C 50.8675,295.694 52.2008,294.694 53.5,293.5C 54.5896,294.391 54.5896,295.391 53.5,296.5C 56.2949,296.938 58.6283,297.938 60.5,299.5 Z"/></g>
<g><path style="opacity:0.447" fill="#8e8e8e" d="M 105.5,293.5 C 106.338,293.842 106.672,294.508 106.5,295.5C 102.737,294.913 99.0708,294.913 95.5,295.5C 95.4142,294.504 95.7476,293.671 96.5,293C 99.5314,292.505 102.531,292.671 105.5,293.5 Z"/></g>
<g><path style="opacity:0.848" fill="#212121" d="M 132.5,291.5 C 132.5,292.833 132.5,294.167 132.5,295.5C 135.059,295.198 137.393,295.532 139.5,296.5C 136.918,296.025 134.918,296.692 133.5,298.5C 129.167,298.5 124.833,298.5 120.5,298.5C 120.5,297.167 120.5,295.833 120.5,294.5C 122.099,294.768 123.432,294.434 124.5,293.5C 126.861,293.674 129.194,294.007 131.5,294.5C 131.263,293.209 131.596,292.209 132.5,291.5 Z"/></g>
<g><path style="opacity:0.33" fill="#e0e0e0" d="M 240.5,292.5 C 240.5,293.5 240.5,294.5 240.5,295.5C 239.5,295.5 238.5,295.5 237.5,295.5C 237.5,293.5 238.5,292.5 240.5,292.5 Z"/></g>
<g><path style="opacity:0.682" fill="#7d7d7d" d="M 165.5,296.5 C 163.901,296.768 162.568,296.434 161.5,295.5C 163.03,293.654 165.03,292.654 167.5,292.5C 167.473,294.199 166.806,295.533 165.5,296.5 Z"/></g>
<g><path style="opacity:0.247" fill="#8a8a8a" d="M 179.5,296.5 C 177.167,296.5 174.833,296.5 172.5,296.5C 173.152,295.275 174.319,294.608 176,294.5C 177.681,294.608 178.848,295.275 179.5,296.5 Z"/></g>
<g><path style="opacity:0.398" fill="#5b5b5b" d="M 84.5,290.5 C 85.5521,292.256 87.2188,292.923 89.5,292.5C 89.2627,293.791 89.596,294.791 90.5,295.5C 90.1667,296.833 89.8333,298.167 89.5,299.5C 88.5,299.5 87.5,299.5 86.5,299.5C 85.8333,295.5 85.1667,295.5 84.5,299.5C 78.8186,298.312 73.152,298.312 67.5,299.5C 67.5774,298.25 68.244,297.417 69.5,297C 74.3236,296.886 78.9903,296.053 83.5,294.5C 81.8528,292.512 82.1861,291.179 84.5,290.5 Z"/></g>
<g><path style="opacity:0.891" fill="#1b1b1b" d="M 106.5,295.5 C 110.215,295.577 113.881,295.244 117.5,294.5C 117.715,296.179 117.048,297.179 115.5,297.5C 112.302,296.964 109.635,297.631 107.5,299.5C 104.833,299.5 102.167,299.5 99.5,299.5C 99.38,298.414 98.7133,297.747 97.5,297.5C 96.2867,297.747 95.62,298.414 95.5,299.5C 93.5,299.5 91.5,299.5 89.5,299.5C 89.8333,298.167 90.1667,296.833 90.5,295.5C 92.1667,295.5 93.8333,295.5 95.5,295.5C 99.0708,294.913 102.737,294.913 106.5,295.5 Z"/></g>
<g><path style="opacity:0.378" fill="#7a7a7a" d="M 203.5,296.5 C 206.5,296.5 209.5,296.5 212.5,296.5C 212.389,297.117 212.056,297.617 211.5,298C 210.167,298.167 208.833,298.333 207.5,298.5C 205.667,298.415 204.334,297.748 203.5,296.5 Z"/></g>
<g><path style="opacity:0.82" fill="#818181" d="M 99.5,299.5 C 98.1667,299.5 96.8333,299.5 95.5,299.5C 95.62,298.414 96.2867,297.747 97.5,297.5C 98.7133,297.747 99.38,298.414 99.5,299.5 Z"/></g>
<g><path style="opacity:0.122" fill="#797979" d="M 139.5,296.5 C 139.833,296.5 140.167,296.5 140.5,296.5C 138.721,298.344 136.388,299.01 133.5,298.5C 134.918,296.692 136.918,296.025 139.5,296.5 Z"/></g>
<g><path style="opacity:0.424" fill="#595959" d="M 115.5,297.5 C 115.5,298.167 115.5,298.833 115.5,299.5C 112.833,299.5 110.167,299.5 107.5,299.5C 109.635,297.631 112.302,296.964 115.5,297.5 Z"/></g>
</svg>
